# xmcd CD database file
#
# Track frame offsets:
#	150
#	4478
#	17034
#	30535
#	43359
#	60093
#	71673
#	85654
#	95560
#	108548
#	119987
#	132532
#	140615
#	152009
#	160353
#	172564
#	188631
#	198708
#
# Disc length: 2693 seconds
#
# Revision: 1
# Processed by: cddbd v1.5.1PL0 Copyright (c) Steve Scherf et al.
# Submitted via: CDex 1.51
#
DISCID=fc0a8312
DTITLE=Hank Williams - Famous Country Music Makers
DYEAR=1900
DGENRE=Country
TTITLE0=Intro: Happy Rovin' Cowboy
TTITLE1=Lovesick Blues
TTITLE2=A Mansion On The Hill
TTITLE3=You're Gonna Change Or I'm Gonna Leave
TTITLE4=Tramp On The Street
TTITLE5=I'm A Long Gone Daddy
TTITLE6=Lost Hightway
TTITLE7=I'll Have A New Life
TTITLE8=There'll Be No Teardrops Tonight
TTITLE9=The Prodigal Son
TTITLE10=Pan American
TTITLE11=I Can't Get You Off My Mind
TTITLE12=Mind Your Own Business
TTITLE13=I've Just Told Mama Goodbye
TTITLE14=I'm So Lonesome I Could Cry
TTITLE15=Thy Burdens Are Greater Than Mine
TTITLE16=I Saw The Light
TTITLE17=Close: Sally Goodin
EXTD=
EXTT0=
EXTT1=
EXTT2=
EXTT3=
EXTT4=
EXTT5=
EXTT6=
EXTT7=
EXTT8=
EXTT9=
EXTT10=
EXTT11=
EXTT12=
EXTT13=
EXTT14=
EXTT15=
EXTT16=
EXTT17=
PLAYORDER=
